<svg width="377" height="315" viewBox="0 0 377 315" fill="none" xmlns="http://www.w3.org/2000/svg">
<path d="M104.68 124.901L104.555 168.253C104.555 169.318 103.853 170.382 102.456 171.196C99.6422 172.831 95.0492 172.831 92.2142 171.196C90.7897 170.375 90.081 169.29 90.0879 168.211L90.213 124.859C90.213 125.938 90.9218 127.023 92.3393 127.844C95.1673 129.479 99.7673 129.479 102.581 127.844C103.978 127.03 104.673 125.966 104.68 124.901Z" fill="#0F1114"/>
<path d="M124.962 127.398C124.865 126.785 124.705 125.971 124.517 125.38C122.753 119.946 120.508 113.26 118.437 107.096C117.319 108.251 115.901 109.336 114.178 110.303C104.596 115.688 89.2743 115.535 79.9562 109.955C78.4345 109.044 77.1698 108.042 76.1553 106.984L69.9641 125.227C69.9641 125.533 69.7557 125.909 69.6862 126.208C69.6167 126.5 69.5611 126.897 69.5125 127.196C69.4569 127.488 69.4291 127.892 69.443 128.191C69.4638 128.789 69.5055 129.589 69.6167 130.174C69.7348 130.772 69.9711 131.558 70.2073 132.122C71.7708 135.914 75.3215 138.439 77.3088 139.601C77.8716 139.935 78.629 140.352 79.2127 140.645C85.5985 143.824 94.0479 145.139 102.407 144.256C108.362 143.629 112.469 141.925 112.51 141.911C113.157 141.64 114.032 141.313 114.657 141.006C115.602 140.54 116.86 139.886 117.757 139.323C120.126 137.834 121.509 136.338 121.655 136.171C122.753 134.946 122.898 134.717 123.691 133.423C124.024 132.873 124.323 132.066 124.552 131.461C124.907 130.528 125.171 128.629 124.976 127.405L124.962 127.398Z" fill="#93B73B"/>
<path d="M78.2825 100.822L72.8418 116.998C110.878 134.6 122.337 118.202 122.337 118.202L114.985 98.1641L78.2825 100.829V100.822Z" fill="#087051"/>
<path d="M74.105 96.1603C79.1358 86.3155 84.1665 76.4776 89.1973 66.6328C88.3496 68.2956 89.0305 70.1742 91.268 71.51C94.5616 73.479 99.9815 73.5346 103.365 71.6352C105.721 70.3133 106.478 68.3931 105.617 66.6815C110.592 76.5542 115.567 86.4199 120.542 96.2925C122.981 101.128 120.841 106.555 114.184 110.298C104.602 115.683 89.2807 115.53 79.9626 109.95C73.6394 106.165 71.7077 100.864 74.1119 96.1603H74.105Z" fill="#93B73B"/>
<path d="M87.5301 69.1033L83.9863 76.7287C106.812 83.7905 110.704 77.0139 110.704 77.0139L106.555 67.7188L87.5301 69.1033Z" fill="#087051"/>
<path d="M96.6344 44.9206L97.371 45.6094C97.3224 45.6372 97.3224 45.6859 97.371 45.7137C97.4196 45.7416 97.4961 45.7416 97.5447 45.7137C97.5934 45.6859 97.5934 45.6372 97.5447 45.6094C97.4961 45.5815 97.4196 45.5815 97.371 45.6094L96.6344 44.9206C97.1 44.6562 97.8505 44.6632 98.3091 44.9345C98.7677 45.2058 98.7538 45.6442 98.2882 45.9016C97.8227 46.166 97.0722 46.159 96.6136 45.8877C96.155 45.6163 96.1689 45.178 96.6344 44.9206Z" fill="#93B73B"/>
<path d="M83.8011 64.0397C87.9842 57.7501 92.1672 51.4606 96.3503 45.1641C96.1905 45.4076 96.2738 45.6928 96.6074 45.8876C97.066 46.159 97.8095 46.1659 98.282 45.9016C98.6294 45.7067 98.7267 45.4145 98.5599 45.1641C102.708 51.4815 106.857 57.7919 111.005 64.1093C113.013 67.1706 111.846 70.7606 107.544 73.1749C101.777 76.417 92.5494 76.3196 86.9419 72.9661C82.8492 70.5171 81.8138 67.0036 83.7942 64.0258L83.8011 64.0397Z" fill="#93B73B"/>
<path d="M199.361 120.125V139.214L232.4 158.266L265.439 139.196V120.143L199.361 120.125Z" fill="#C29FFC"/>
<mask id="mask0_639_27355" style="mask-type:luminance" maskUnits="userSpaceOnUse" x="199" y="120" width="67" height="39">
<path d="M199.361 120.125V139.214L232.4 158.266L265.439 139.196V120.143L199.361 120.125Z" fill="white"/>
</mask>
<g mask="url(#mask0_639_27355)">
<path d="M232.457 199.804L322.341 200.336L288.384 102.688L232.457 83.6172V199.804Z" fill="#9258F5"/>
</g>
<path d="M199.361 120.123L232.4 101.07L265.439 120.141L232.4 139.194L199.361 120.123Z" fill="#F1E8FF"/>
<path d="M232.397 138.938L232.379 158.045L265.436 177.079L298.475 158.008V138.974L232.397 138.938Z" fill="#C29FFC"/>
<mask id="mask1_639_27355" style="mask-type:luminance" maskUnits="userSpaceOnUse" x="232" y="138" width="67" height="40">
<path d="M232.397 138.938L232.379 158.045L265.436 177.079L298.475 158.008V138.974L232.397 138.938Z" fill="white"/>
</mask>
<g mask="url(#mask1_639_27355)">
<path d="M265.488 218.616L355.354 219.149L321.397 121.519L265.488 102.43V218.616Z" fill="#9258F5"/>
</g>
<path d="M232.4 138.935L265.439 119.883L298.478 138.972L265.439 158.006L232.4 138.935Z" fill="#F1E8FF"/>
<path d="M265.416 157.75V176.857L298.455 195.91L331.494 176.839V157.787L265.416 157.75Z" fill="#C29FFC"/>
<mask id="mask2_639_27355" style="mask-type:luminance" maskUnits="userSpaceOnUse" x="265" y="157" width="67" height="39">
<path d="M265.416 157.75V176.857L298.455 195.91L331.494 176.839V157.787L265.416 157.75Z" fill="white"/>
</mask>
<g mask="url(#mask2_639_27355)">
<path d="M298.514 237.444L388.398 237.958L354.441 140.329L298.514 121.258V237.444Z" fill="#9258F5"/>
</g>
<path d="M265.416 157.753L298.455 138.719L331.494 157.79L298.455 176.842L265.416 157.753Z" fill="#F1E8FF"/>
<path d="M166.628 139.156L166.609 158.264L199.667 177.298L232.705 158.227L232.687 139.175L166.628 139.156Z" fill="#C29FFC"/>
<mask id="mask3_639_27355" style="mask-type:luminance" maskUnits="userSpaceOnUse" x="166" y="139" width="67" height="39">
<path d="M166.628 139.156L166.609 158.264L199.667 177.298L232.705 158.227L232.687 139.175L166.628 139.156Z" fill="white"/>
</mask>
<g mask="url(#mask3_639_27355)">
<path d="M199.719 218.835L289.584 219.367L255.628 121.719L199.719 102.648V218.835Z" fill="#9258F5"/>
</g>
<path d="M166.629 139.154L199.649 120.102L232.688 139.172L199.668 158.225L166.629 139.154Z" fill="#F1E8FF"/>
<path d="M199.648 157.969V177.076L232.687 196.129L265.726 177.04V158.005L199.648 157.969Z" fill="#C29FFC"/>
<mask id="mask4_639_27355" style="mask-type:luminance" maskUnits="userSpaceOnUse" x="199" y="157" width="67" height="40">
<path d="M199.648 157.969V177.076L232.687 196.129L265.726 177.04V158.005L199.648 157.969Z" fill="white"/>
</mask>
<g mask="url(#mask4_639_27355)">
<path d="M232.744 237.645L322.628 238.177L288.672 140.547L232.744 121.477V237.645Z" fill="#9258F5"/>
</g>
<path d="M199.648 157.972L232.687 138.938L265.726 158.008L232.687 177.042L199.648 157.972Z" fill="#F1E8FF"/>
<path d="M232.686 176.805V195.894L265.724 214.946L298.763 195.875V176.823L232.686 176.805Z" fill="#C29FFC"/>
<mask id="mask5_639_27355" style="mask-type:luminance" maskUnits="userSpaceOnUse" x="232" y="176" width="67" height="39">
<path d="M232.686 176.805V195.894L265.724 214.946L298.763 195.875V176.823L232.686 176.805Z" fill="white"/>
</mask>
<g mask="url(#mask5_639_27355)">
<path d="M265.781 256.483L355.647 257.016L321.69 159.368L265.781 140.297V256.483Z" fill="#9258F5"/>
</g>
<path d="M232.686 176.802L265.724 157.75L298.763 176.821L265.724 195.873L232.686 176.802Z" fill="#F1E8FF"/>
<path d="M133.887 158.195V177.303L166.926 196.355L199.964 177.266V158.232L133.887 158.195Z" fill="#C29FFC"/>
<mask id="mask6_639_27355" style="mask-type:luminance" maskUnits="userSpaceOnUse" x="133" y="158" width="67" height="39">
<path d="M133.887 158.195V177.303L166.926 196.355L199.964 177.266V158.232L133.887 158.195Z" fill="white"/>
</mask>
<g mask="url(#mask6_639_27355)">
<path d="M166.982 237.871L256.866 238.404L222.91 140.774L166.982 121.703V237.871Z" fill="#9258F5"/>
</g>
<path d="M133.887 158.193L166.926 139.141L199.964 158.23L166.926 177.264L133.887 158.193Z" fill="#F1E8FF"/>
<path d="M166.924 177.023V196.112L199.963 215.165L233.002 196.094V177.042L166.924 177.023Z" fill="#C29FFC"/>
<mask id="mask7_639_27355" style="mask-type:luminance" maskUnits="userSpaceOnUse" x="166" y="177" width="68" height="39">
<path d="M166.924 177.023V196.112L199.963 215.165L233.002 196.094V177.042L166.924 177.023Z" fill="white"/>
</mask>
<g mask="url(#mask7_639_27355)">
<path d="M200.02 256.702L289.885 257.235L255.929 159.586L200.02 140.516V256.702Z" fill="#9258F5"/>
</g>
<path d="M166.924 177.021L199.963 157.969L233.002 177.04L199.963 196.092L166.924 177.021Z" fill="#F1E8FF"/>
<path d="M199.941 195.836V214.943L232.98 233.977L266.019 214.907V195.854L199.941 195.836Z" fill="#C29FFC"/>
<mask id="mask8_639_27355" style="mask-type:luminance" maskUnits="userSpaceOnUse" x="199" y="195" width="68" height="39">
<path d="M199.941 195.836V214.943L232.98 233.977L266.019 214.907V195.854L199.941 195.836Z" fill="white"/>
</mask>
<g mask="url(#mask8_639_27355)">
<path d="M233.053 275.515L322.918 276.047L288.962 178.399L233.053 159.328V275.515Z" fill="#9258F5"/>
</g>
<path d="M199.941 195.834L232.98 176.781L266.019 195.852L232.98 214.904L199.941 195.834Z" fill="#F1E8FF"/>
<path d="M185.352 201.859V208.798L218.39 227.685L227.256 222.564V215.846L185.352 201.859Z" fill="#9258F5"/>
<mask id="mask9_639_27355" style="mask-type:luminance" maskUnits="userSpaceOnUse" x="185" y="201" width="43" height="27">
<path d="M185.352 201.859V208.798L218.39 227.685L227.256 222.564V215.846L185.352 201.859Z" fill="white"/>
</mask>
<g mask="url(#mask9_639_27355)">
<path d="M218.447 269.218L308.313 282.066L274.356 184.436L218.447 153.031V269.218Z" fill="#C29FFC"/>
</g>
<path d="M185.352 201.858L194.217 196.773L227.256 215.844L218.39 220.928L185.352 201.858Z" fill="#F1E8FF"/>
<path d="M168.829 211.398L168.811 218.318L201.868 237.205L210.733 232.084L210.715 225.366L168.829 211.398Z" fill="#9258F5"/>
<mask id="mask10_639_27355" style="mask-type:luminance" maskUnits="userSpaceOnUse" x="168" y="211" width="43" height="27">
<path d="M168.829 211.398L168.811 218.318L201.868 237.205L210.733 232.084L210.715 225.366L168.829 211.398Z" fill="white"/>
</mask>
<g mask="url(#mask10_639_27355)">
<path d="M201.92 278.741L291.786 291.608L257.829 193.96L201.92 162.555V278.741Z" fill="#C29FFC"/>
</g>
<path d="M168.83 211.4L177.677 206.297L210.716 225.368L201.869 230.47L168.83 211.4Z" fill="#F1E8FF"/>
<path d="M152.311 220.945V227.865L185.349 246.752L194.215 241.631V234.913L152.311 220.945Z" fill="#9258F5"/>
<mask id="mask11_639_27355" style="mask-type:luminance" maskUnits="userSpaceOnUse" x="152" y="220" width="43" height="27">
<path d="M152.311 220.945V227.865L185.349 246.752L194.215 241.631V234.913L152.311 220.945Z" fill="white"/>
</mask>
<g mask="url(#mask11_639_27355)">
<path d="M185.408 288.288L275.274 301.155L241.317 203.507L185.408 172.102V288.288Z" fill="#C29FFC"/>
</g>
<path d="M152.311 220.946L161.176 215.844L194.215 234.915L185.349 240.017L152.311 220.946Z" fill="#F1E8FF"/>
<path d="M135.811 230.453L135.793 237.373L168.85 256.278L177.716 251.139L177.697 244.421L135.811 230.453Z" fill="#9258F5"/>
<mask id="mask12_639_27355" style="mask-type:luminance" maskUnits="userSpaceOnUse" x="135" y="230" width="43" height="27">
<path d="M135.811 230.453L135.793 237.373L168.85 256.278L177.716 251.139L177.697 244.421L135.811 230.453Z" fill="white"/>
</mask>
<g mask="url(#mask12_639_27355)">
<path d="M168.902 297.801L258.768 310.668L224.811 213.02L168.902 181.633V297.801Z" fill="#C29FFC"/>
</g>
<path d="M135.812 230.454L144.66 225.352L177.698 244.422L168.851 249.525L135.812 230.454Z" fill="#F1E8FF"/>
<path d="M119.309 239.977V246.915L152.347 265.802L161.213 260.681V253.963L119.309 239.977Z" fill="#9258F5"/>
<mask id="mask13_639_27355" style="mask-type:luminance" maskUnits="userSpaceOnUse" x="119" y="239" width="43" height="27">
<path d="M119.309 239.977V246.915L152.347 265.802L161.213 260.681V253.963L119.309 239.977Z" fill="white"/>
</mask>
<g mask="url(#mask13_639_27355)">
<path d="M152.404 307.343L242.27 320.191L208.313 222.561L152.404 191.156V307.343Z" fill="#C29FFC"/>
</g>
<path d="M119.309 239.978L128.174 234.875L161.213 253.964L152.347 259.049L119.309 239.978Z" fill="#F1E8FF"/>
<path d="M102.7 249.539L102.682 256.477L135.739 275.364L144.604 270.243L144.586 263.525L102.7 249.539Z" fill="#9258F5"/>
<mask id="mask14_639_27355" style="mask-type:luminance" maskUnits="userSpaceOnUse" x="102" y="249" width="43" height="27">
<path d="M102.7 249.539L102.682 256.477L135.739 275.364L144.604 270.243L144.586 263.525L102.7 249.539Z" fill="white"/>
</mask>
<g mask="url(#mask14_639_27355)">
<path d="M135.793 316.905L225.659 329.754L191.702 232.124L135.793 200.719V316.905Z" fill="#C29FFC"/>
</g>
<path d="M102.703 249.54L111.55 244.438L144.589 263.527L135.742 268.611L102.703 249.54Z" fill="#F1E8FF"/>
<path d="M86.2898 259.047L86.2715 265.985L119.329 284.872L128.176 279.751V273.015L86.2898 259.047Z" fill="#9258F5"/>
<mask id="mask15_639_27355" style="mask-type:luminance" maskUnits="userSpaceOnUse" x="86" y="259" width="43" height="26">
<path d="M86.2898 259.047L86.2715 265.985L119.329 284.872L128.176 279.751V273.015L86.2898 259.047Z" fill="white"/>
</mask>
<g mask="url(#mask15_639_27355)">
<path d="M119.381 326.387L209.246 339.254L175.29 241.624L119.381 210.219V326.387Z" fill="#C29FFC"/>
</g>
<path d="M86.291 259.048L95.1381 253.945L128.177 273.016L119.33 278.119L86.291 259.048Z" fill="#F1E8FF"/>
<path d="M92.2144 241.539H90.4707V259.252H92.2144V241.539Z" fill="#0F1114"/>
<path d="M91.2626 242.861C92.7021 242.861 93.869 241.694 93.869 240.255C93.869 238.815 92.7021 237.648 91.2626 237.648C89.8232 237.648 88.6562 238.815 88.6562 240.255C88.6562 241.694 89.8232 242.861 91.2626 242.861Z" fill="#9258F5"/>
<path d="M194.414 184.422H192.67V202.134H194.414V184.422Z" fill="#0F1114"/>
<path d="M193.462 185.76C194.901 185.76 196.068 184.593 196.068 183.153C196.068 181.714 194.901 180.547 193.462 180.547C192.022 180.547 190.855 181.714 190.855 183.153C190.855 184.593 192.022 185.76 193.462 185.76Z" fill="#9258F5"/>
<path d="M90.4707 241.54C98.5102 247.56 167.818 219.018 192.671 184.438" stroke="#9258F5" stroke-width="2.1168" stroke-miterlimit="10"/>
<path d="M119.761 256.734H118.018V274.447H119.761V256.734Z" fill="#0F1114"/>
<path d="M118.812 258.056C120.251 258.056 121.418 256.89 121.418 255.45C121.418 254.011 120.251 252.844 118.812 252.844C117.372 252.844 116.205 254.011 116.205 255.45C116.205 256.89 117.372 258.056 118.812 258.056Z" fill="#9258F5"/>
<path d="M221.96 199.617H220.217V217.33H221.96V199.617Z" fill="#0F1114"/>
<path d="M221.011 200.955C222.45 200.955 223.617 199.788 223.617 198.349C223.617 196.909 222.45 195.742 221.011 195.742C219.571 195.742 218.404 196.909 218.404 198.349C218.404 199.788 219.571 200.955 221.011 200.955Z" fill="#9258F5"/>
<path d="M118.018 256.735C126.057 262.755 195.365 234.213 220.218 199.633" stroke="#9258F5" stroke-width="2.1168" stroke-miterlimit="10"/>
<path d="M308.195 178.344V197.451L341.234 216.485L374.273 197.415V178.362L308.195 178.344Z" fill="#C29FFC"/>
<mask id="mask16_639_27355" style="mask-type:luminance" maskUnits="userSpaceOnUse" x="308" y="178" width="67" height="39">
<path d="M308.195 178.344V197.451L341.234 216.485L374.273 197.415V178.362L308.195 178.344Z" fill="white"/>
</mask>
<g mask="url(#mask16_639_27355)">
<path d="M341.291 258.023L431.157 258.555L397.2 160.907L341.291 141.836V258.023Z" fill="#9258F5"/>
</g>
<path d="M308.195 178.341L341.234 159.289L374.273 178.36L341.234 197.412L308.195 178.341Z" fill="#F1E8FF"/>
<path d="M241.195 114.139L284.048 138.743V155.83L241.195 131.225V114.139Z" fill="black"/>
<path fill-rule="evenodd" clip-rule="evenodd" d="M298.331 164.032L284.047 155.831L305.473 143.528L319.758 151.73L298.331 164.032Z" fill="#6580E1"/>
<path fill-rule="evenodd" clip-rule="evenodd" d="M284.046 155.831V73.8151C284.046 60.2263 274.453 43.7023 262.62 36.9079C256.94 33.6466 251.776 33.2197 247.941 35.1605L269.368 22.8581C273.202 20.9174 278.366 21.3442 284.046 24.6055C295.88 31.3999 305.473 47.9239 305.473 61.5127V143.529L284.046 155.831Z" fill="#6580E1"/>
<path fill-rule="evenodd" clip-rule="evenodd" d="M247.941 35.1598C243.787 37.2623 241.193 42.1434 241.193 49.2096V131.225L262.62 118.923V36.9072C262.62 29.841 265.214 24.9599 269.368 22.8574L247.941 35.1598Z" fill="#C74504"/>
<path fill-rule="evenodd" clip-rule="evenodd" d="M236.605 18.4824C243.119 14.2716 252.365 14.6158 262.62 20.5043C282.343 31.8284 298.331 59.3682 298.331 82.0162V164.032L319.758 151.73V69.7138C319.758 47.0658 303.769 19.526 284.047 8.20194C273.791 2.31344 264.545 1.96922 258.032 6.17997L236.605 18.4824Z" fill="#FFDC96"/>
<mask id="mask17_639_27355" style="mask-type:alpha" maskUnits="userSpaceOnUse" x="236" y="3" width="84" height="162">
<path fill-rule="evenodd" clip-rule="evenodd" d="M236.605 18.4824C243.119 14.2716 252.365 14.6158 262.62 20.5043C282.343 31.8284 298.331 59.3682 298.331 82.0162V164.032L319.758 151.73V69.7138C319.758 47.0658 303.769 19.526 284.047 8.20194C273.791 2.31344 264.545 1.96922 258.032 6.17997L236.605 18.4824Z" fill="#FFDC96"/>
</mask>
<g mask="url(#mask17_639_27355)">
<rect width="26.5043" height="89.8254" transform="matrix(0.867218 -0.497929 0 1 296.773 78.1768)" fill="#F28100"/>
</g>
<path fill-rule="evenodd" clip-rule="evenodd" d="M262.621 20.4406C282.343 31.7295 298.332 59.2595 298.332 81.931V164.032L262.621 143.592L226.91 123.151V41.0508C226.91 18.3793 242.899 9.15182 262.621 20.4406ZM262.621 36.8606C250.788 30.0873 241.195 35.6242 241.195 49.2272V131.267L284.047 155.83V73.7547C284.047 60.1519 274.454 43.6339 262.621 36.8606Z" fill="#FFC936"/>
<path d="M249.686 46.0119C249.686 35.754 257.743 32.6281 266.495 39.4909C276.661 47.4619 284.048 61.9139 284.048 73.8282V155.833L249.686 126.415V46.0119Z" fill="#FFBB00"/>
<ellipse cx="2.58246" cy="3.60046" rx="2.58246" ry="3.60046" transform="matrix(0.867218 0.497929 0 1 253.025 86.1162)" fill="black"/>
<path d="M0.0234375 275.223C0.0234375 280.068 6.48434 283.996 14.4504 283.996C22.4164 283.996 28.8774 280.068 28.8774 275.223C28.8774 274.617 28.8039 259.988 28.8039 259.988L0.0417543 259.07V275.223H0.0234375Z" fill="#9258F5"/>
<mask id="mask18_639_27355" style="mask-type:luminance" maskUnits="userSpaceOnUse" x="0" y="259" width="29" height="25">
<path d="M0.0234375 275.223C0.0234375 280.068 6.48434 283.996 14.4504 283.996C22.4164 283.996 28.8774 280.068 28.8774 275.223C28.8774 274.617 28.8039 259.988 28.8039 259.988L0.0417543 259.07V275.223H0.0234375Z" fill="white"/>
</mask>
<g mask="url(#mask18_639_27355)">
<path d="M14.4344 290.694L-4.9668 286.308V258.133L14.4344 262.501V290.694Z" fill="#C29FFC"/>
</g>
<path d="M14.427 267.844C22.3948 267.844 28.8539 263.916 28.8539 259.071C28.8539 254.225 22.3948 250.297 14.427 250.297C6.4592 250.297 0 254.225 0 259.071C0 263.916 6.4592 267.844 14.427 267.844Z" fill="#F1E8FF"/>
<path d="M33.7012 276.506C33.7012 280.379 38.8772 283.517 45.2464 283.517C51.6155 283.517 56.7916 280.379 56.7916 276.506C56.7916 276.028 56.7366 258.555 56.7366 258.555L33.7012 257.82V276.506Z" fill="#9258F5"/>
<mask id="mask19_639_27355" style="mask-type:luminance" maskUnits="userSpaceOnUse" x="33" y="257" width="24" height="27">
<path d="M33.7012 276.506C33.7012 280.379 38.8772 283.517 45.2464 283.517C51.6155 283.517 56.7916 280.379 56.7916 276.506C56.7916 276.028 56.7366 258.555 56.7366 258.555L33.7012 257.82V276.506Z" fill="white"/>
</mask>
<g mask="url(#mask19_639_27355)">
<path d="M45.2595 288.898L29.7129 279.647V257.07L45.2595 258.135V288.898Z" fill="#C29FFC"/>
</g>
<path d="M45.2679 264.836C51.6442 264.836 56.8132 261.696 56.8132 257.824C56.8132 253.952 51.6442 250.812 45.2679 250.812C38.8917 250.812 33.7227 253.952 33.7227 257.824C33.7227 261.696 38.8917 264.836 45.2679 264.836Z" fill="#F1E8FF"/>
<path d="M48.6074 301.267C48.6074 308.848 58.721 314.997 71.2023 314.997C83.6837 314.997 93.7972 308.848 93.7972 301.267C93.7972 300.331 93.6687 284.252 93.6687 284.252L48.6074 282.82V301.267Z" fill="#9258F5"/>
<mask id="mask20_639_27355" style="mask-type:luminance" maskUnits="userSpaceOnUse" x="48" y="282" width="46" height="33">
<path d="M48.6074 301.267C48.6074 308.848 58.721 314.997 71.2023 314.997C83.6837 314.997 93.7972 308.848 93.7972 301.267C93.7972 300.331 93.6687 284.252 93.6687 284.252L48.6074 282.82V301.267Z" fill="white"/>
</mask>
<g mask="url(#mask20_639_27355)">
<path d="M40.7695 325.516H71.1836V281.372H40.7695L40.7695 325.516Z" fill="#C29FFC"/>
</g>
<path d="M71.1789 296.553C83.6577 296.553 93.7738 290.406 93.7738 282.823C93.7738 275.241 83.6577 269.094 71.1789 269.094C58.7001 269.094 48.584 275.241 48.584 282.823C48.584 290.406 58.7001 296.553 71.1789 296.553Z" fill="#F1E8FF"/>
<path d="M82.4629 275.475C75.7036 271.571 64.8032 271.571 58.0973 275.475C51.3915 279.379 51.4182 285.689 58.1775 289.593C64.9368 293.497 75.8372 293.497 82.5431 289.593C89.249 285.689 89.2222 279.379 82.4629 275.475Z" fill="#0F1114"/>
<path d="M72.4074 281.332C81.9836 281.332 89.7466 273.563 89.7466 263.978C89.7466 254.394 81.9836 246.625 72.4074 246.625C62.8313 246.625 55.0684 254.394 55.0684 263.978C55.0684 273.563 62.8313 281.332 72.4074 281.332Z" fill="#FFC936"/>
<path d="M72.3983 268.977C75.1576 268.977 77.3944 266.738 77.3944 263.977C77.3944 261.215 75.1576 258.977 72.3983 258.977C69.6391 258.977 67.4023 261.215 67.4023 263.977C67.4023 266.738 69.6391 268.977 72.3983 268.977Z" fill="#FFF5E6"/>
<path d="M215.363 129.133L160.629 161.731C158.573 162.924 155.746 162.759 152.607 160.942L207.342 128.344C210.48 130.161 213.307 130.326 215.363 129.133Z" fill="#F1E8FF"/>
<path d="M144.62 134.2L199.354 101.602C197.335 102.776 196.069 105.291 196.069 108.852C196.05 116.01 201.079 124.747 207.32 128.363L152.586 160.961C146.345 157.364 141.297 148.627 141.334 141.45C141.334 137.889 142.601 135.375 144.62 134.2Z" fill="#F1E8FF"/>
<path d="M142.016 129.724L196.75 97.1256C199.467 95.5471 203.248 95.7674 207.414 98.1719L152.68 130.77C148.513 128.366 144.751 128.145 142.016 129.724Z" fill="#F1E8FF"/>
<path d="M217.965 133.634L163.23 166.232C165.91 164.672 167.58 161.35 167.599 156.614C167.617 147.106 159.725 134.9 151.465 130.128L206.585 97.3828C214.844 102.155 222.37 114.49 222.352 123.997C222.352 128.715 220.663 132.037 217.983 133.615L217.965 133.634Z" fill="#C29FFC"/>
<path d="M163.891 154.227C163.891 154.227 163.891 154.411 163.891 154.502C163.873 161.661 158.807 164.561 152.566 160.963C146.326 157.366 141.278 148.629 141.315 141.452C141.315 141.011 141.333 140.571 141.37 140.167C141.37 140.002 141.407 139.855 141.443 139.708C141.48 139.47 141.498 139.213 141.553 138.974C141.59 138.827 141.627 138.68 141.664 138.534C141.719 138.313 141.774 138.093 141.829 137.891C141.884 137.744 141.939 137.616 141.994 137.469C142.067 137.285 142.122 137.102 142.214 136.918C142.288 136.79 142.361 136.661 142.434 136.533C142.526 136.368 142.6 136.203 142.691 136.056C142.765 135.927 142.857 135.835 142.948 135.707C143.058 135.578 143.15 135.432 143.26 135.303C143.352 135.193 143.462 135.101 143.572 135.01C143.683 134.899 143.793 134.789 143.921 134.679C144.031 134.587 144.16 134.514 144.27 134.44C144.398 134.349 144.509 134.257 144.637 134.184L151.465 130.109C143.756 126.383 137.681 130.274 137.662 139.305C137.644 148.812 144.325 160.376 152.585 165.167C160.844 169.939 167.581 166.103 167.599 156.595C167.599 155.181 167.452 153.731 167.177 152.263L163.91 154.209L163.891 154.227Z" fill="#F1E8FF"/>
<path d="M152.661 134.988C149.32 133.06 146.328 133.005 144.254 134.455C144.144 134.529 144.015 134.602 143.905 134.694C143.777 134.786 143.685 134.914 143.557 135.024C143.446 135.116 143.355 135.208 143.244 135.318C143.134 135.446 143.043 135.575 142.932 135.722C142.841 135.832 142.749 135.942 142.675 136.07C142.584 136.217 142.492 136.383 142.419 136.548C142.345 136.676 142.272 136.805 142.198 136.933C142.125 137.098 142.051 137.3 141.978 137.484C141.923 137.631 141.868 137.759 141.813 137.906C141.739 138.108 141.703 138.328 141.648 138.548C141.611 138.695 141.574 138.842 141.537 138.989C141.482 139.228 141.464 139.466 141.427 139.723C141.409 139.87 141.372 140.017 141.354 140.182C141.317 140.604 141.299 141.026 141.299 141.467C141.281 148.625 146.31 157.362 152.55 160.978L163.857 154.242C163.747 147.12 158.773 138.567 152.624 135.006L152.661 134.988Z" fill="#C29FFC"/>
<path d="M167.158 152.279L207.337 128.363C201.097 124.765 196.049 116.029 196.086 108.852C196.086 105.291 197.352 102.776 199.371 101.602L151.465 130.125C151.869 130.327 152.272 130.529 152.676 130.749C159.706 134.806 165.58 143.799 167.158 152.261V152.279Z" fill="#9258F5"/>
<path d="M141.441 139.703C141.478 139.464 141.496 139.207 141.552 138.969C141.496 139.207 141.478 139.446 141.441 139.703Z" fill="#9258F5"/>
<path d="M144.252 134.454C146.326 133.004 149.318 133.077 152.659 134.986C158.807 138.547 163.8 147.082 163.892 154.222L167.159 152.277C165.58 143.815 159.707 134.821 152.677 130.765C152.273 130.526 151.869 130.324 151.465 130.141L144.637 134.215C144.509 134.289 144.399 134.381 144.27 134.472L144.252 134.454Z" fill="#F1E8FF"/>
<path d="M141.312 141.449C141.312 141.008 141.331 140.568 141.368 140.164C141.331 140.586 141.312 141.008 141.312 141.449Z" fill="#9258F5"/>
<path d="M142.016 137.465C142.089 137.281 142.144 137.098 142.236 136.914C142.162 137.079 142.089 137.281 142.016 137.465Z" fill="#9258F5"/>
<path d="M142.438 136.532C142.529 136.367 142.603 136.202 142.694 136.055C142.603 136.202 142.511 136.367 142.438 136.532Z" fill="#9258F5"/>
<path d="M142.949 135.724C143.059 135.596 143.151 135.449 143.261 135.32C143.151 135.449 143.059 135.577 142.949 135.724Z" fill="#9258F5"/>
<path d="M143.57 135.026C143.68 134.916 143.791 134.805 143.919 134.695C143.791 134.787 143.699 134.916 143.57 135.026Z" fill="#9258F5"/>
<path d="M141.662 138.533C141.717 138.313 141.772 138.093 141.827 137.891C141.754 138.093 141.717 138.313 141.662 138.533Z" fill="#9258F5"/>
<path d="M352.072 131.941L351.92 184.64C351.92 185.934 351.067 187.228 349.369 188.218C345.948 190.205 340.365 190.205 336.919 188.218C335.187 187.22 334.326 185.9 334.334 184.59L334.486 131.891C334.486 133.202 335.348 134.521 337.071 135.519C340.509 137.506 346.1 137.506 349.521 135.519C351.219 134.529 352.064 133.235 352.072 131.941Z" fill="#0F1114"/>
<path d="M376.728 134.978C376.61 134.234 376.416 133.245 376.187 132.526C374.042 125.92 371.314 117.793 368.797 110.299C367.437 111.703 365.714 113.023 363.619 114.198C351.971 120.744 333.346 120.558 322.019 113.775C320.169 112.667 318.631 111.45 317.398 110.164L309.872 132.34C309.872 132.712 309.619 133.169 309.534 133.532C309.45 133.887 309.382 134.37 309.323 134.733C309.256 135.088 309.222 135.579 309.239 135.943C309.264 136.67 309.315 137.643 309.45 138.353C309.593 139.08 309.881 140.036 310.168 140.721C312.068 145.331 316.385 148.401 318.8 149.813C319.485 150.219 320.405 150.726 321.115 151.082C328.877 154.947 339.149 156.545 349.31 155.471C356.549 154.71 361.541 152.638 361.592 152.621C362.377 152.291 363.441 151.894 364.202 151.521C365.35 150.955 366.879 150.16 367.969 149.475C370.849 147.665 372.53 145.846 372.707 145.643C374.042 144.155 374.219 143.876 375.182 142.303C375.588 141.635 375.951 140.653 376.23 139.918C376.66 138.784 376.981 136.475 376.745 134.987L376.728 134.978Z" fill="#93B73B"/>
<path d="M319.983 102.668L313.369 122.332C359.607 143.73 373.535 123.795 373.535 123.795L364.599 99.4375L319.983 102.677V102.668Z" fill="#087051"/>
<path d="M314.905 97.0032C321.02 85.0358 327.136 73.0768 333.251 61.1094C332.221 63.1307 333.048 65.4143 335.768 67.0381C339.772 69.4316 346.36 69.4993 350.474 67.1903C353.337 65.5834 354.258 63.2491 353.211 61.1686C359.258 73.1698 365.306 85.1626 371.354 97.1639C374.319 103.042 371.717 109.639 363.625 114.189C351.977 120.735 333.352 120.549 322.025 113.766C314.339 109.165 311.991 102.72 314.913 97.0032H314.905Z" fill="#93B73B"/>
<path d="M331.226 64.1127L326.918 73.3822C354.665 81.9666 359.396 73.729 359.396 73.729L354.353 62.4297L331.226 64.1127Z" fill="#087051"/>
<path d="M342.293 34.7124L343.189 35.5497C343.13 35.5835 343.13 35.6427 343.189 35.6766C343.248 35.7104 343.341 35.7104 343.4 35.6766C343.459 35.6427 343.459 35.5835 343.4 35.5497C343.341 35.5159 343.248 35.5159 343.189 35.5497L342.293 34.7124C342.859 34.391 343.772 34.3995 344.329 34.7293C344.887 35.0592 344.87 35.592 344.304 35.9049C343.738 36.2263 342.826 36.2179 342.268 35.888C341.711 35.5582 341.728 35.0253 342.293 34.7124Z" fill="#93B73B"/>
<path d="M326.694 57.9531C331.779 50.3075 336.864 42.6619 341.949 35.0078C341.755 35.3038 341.856 35.6506 342.262 35.8874C342.819 36.2172 343.723 36.2257 344.297 35.9043C344.72 35.6675 344.838 35.3123 344.635 35.0078C349.678 42.6873 354.72 50.3582 359.763 58.0377C362.204 61.759 360.785 66.1231 355.557 69.0579C348.546 72.9991 337.329 72.8807 330.512 68.8041C325.537 65.8271 324.278 61.556 326.686 57.9362L326.694 57.9531Z" fill="#93B73B"/>
<path d="M23.879 200.828C23.879 201.203 24.2381 201.577 24.9488 201.865C26.3776 202.432 28.693 202.432 30.1072 201.865C30.8106 201.582 31.1623 201.213 31.1623 200.843L31.1037 215.901C31.1037 216.27 30.752 216.639 30.0485 216.923C28.6344 217.489 26.319 217.489 24.8902 216.923C24.1721 216.639 23.8131 216.26 23.8204 215.885" fill="#0F1114"/>
<path d="M33.5969 142.149C35.5315 146.979 36.6567 153.301 36.6567 161.26C36.6567 183.087 28.2058 193.891 17.7879 193.891C15.2786 193.891 12.8987 193.251 10.7051 191.995C14.1129 200.189 19.763 204.282 26.1578 204.282C36.5757 204.282 45.0266 193.478 45.0266 171.651C45.0266 155.352 40.3155 145.893 33.5969 142.141V142.149Z" fill="#087051"/>
<path d="M36.6602 161.258C36.6602 153.299 35.5351 146.977 33.6004 142.146C31.3177 140.874 28.8084 140.258 26.1695 140.258C15.7516 140.258 7.30078 149.822 7.30078 171.657C7.30078 180.086 8.57165 186.846 10.7167 192C12.9023 193.257 15.2902 193.897 17.7996 193.897C28.2175 193.897 36.6683 183.093 36.6683 161.266L36.6602 161.258Z" fill="#93B73B"/>
</svg>
