<svg width="340" height="207" viewBox="0 0 340 207" fill="none" xmlns="http://www.w3.org/2000/svg">
<g clip-path="url(#clip0_657_15665)">
<rect width="340" height="207" fill="#F9F5FF"/>
<path d="M141.938 124.969V149.135L183.764 173.255L225.59 149.112V124.992L141.938 124.969Z" fill="#ADCFFF"/>
<mask id="mask0_657_15665" style="mask-type:luminance" maskUnits="userSpaceOnUse" x="141" y="124" width="85" height="50">
<path d="M141.938 124.969V149.135L183.764 173.255L225.59 149.112V124.992L141.938 124.969Z" fill="white"/>
</mask>
<g mask="url(#mask0_657_15665)">
<path d="M183.836 225.84L297.627 226.514L254.639 102.894L183.836 78.751V225.84Z" fill="#A678F5"/>
</g>
<path d="M141.938 124.968L183.764 100.849L225.59 124.992L183.764 149.112L141.938 124.968Z" fill="#E8D8FF"/>
<path d="M183.758 148.786L183.734 172.976L225.584 197.072L267.41 172.929V148.833L183.758 148.786Z" fill="#ADCFFF"/>
<mask id="mask1_657_15665" style="mask-type:luminance" maskUnits="userSpaceOnUse" x="183" y="148" width="85" height="50">
<path d="M183.758 148.786L183.734 172.976L225.584 197.072L267.41 172.929V148.833L183.758 148.786Z" fill="white"/>
</mask>
<g mask="url(#mask1_657_15665)">
<path d="M225.648 249.658L339.416 250.331L296.428 126.735L225.648 102.568V249.658Z" fill="#A678F5"/>
</g>
<path d="M183.758 148.786L225.584 124.666L267.41 148.832L225.584 172.929L183.758 148.786Z" fill="#E8D8FF"/>
<path d="M225.562 172.604V196.793L267.389 220.913L309.215 196.77V172.65L225.562 172.604Z" fill="#ADCFFF"/>
<mask id="mask2_657_15665" style="mask-type:luminance" maskUnits="userSpaceOnUse" x="225" y="172" width="85" height="49">
<path d="M225.562 172.604V196.793L267.389 220.913L309.215 196.77V172.65L225.562 172.604Z" fill="white"/>
</mask>
<g mask="url(#mask2_657_15665)">
<path d="M267.461 273.497L381.252 274.148L338.264 150.551L267.461 126.408V273.497Z" fill="#A678F5"/>
</g>
<path d="M225.562 172.603L267.389 148.507L309.215 172.65L267.389 196.77L225.562 172.603Z" fill="#E8D8FF"/>
<path d="M100.5 149.065L100.477 173.255L142.326 197.351L184.152 173.209L184.129 149.089L100.5 149.065Z" fill="#ADCFFF"/>
<mask id="mask3_657_15665" style="mask-type:luminance" maskUnits="userSpaceOnUse" x="100" y="149" width="85" height="49">
<path d="M100.5 149.065L100.477 173.255L142.326 197.351L184.152 173.209L184.129 149.089L100.5 149.065Z" fill="white"/>
</mask>
<g mask="url(#mask3_657_15665)">
<path d="M142.391 249.937L256.158 250.611L213.17 126.991L142.391 102.848V249.937Z" fill="#A678F5"/>
</g>
<path d="M100.5 149.065L142.303 124.945L184.129 149.088L142.326 173.208L100.5 149.065Z" fill="#E8D8FF"/>
<path d="M142.297 172.883V197.072L184.123 221.192L225.949 197.026V172.929L142.297 172.883Z" fill="#ADCFFF"/>
<mask id="mask4_657_15665" style="mask-type:luminance" maskUnits="userSpaceOnUse" x="142" y="172" width="84" height="50">
<path d="M142.297 172.883V197.072L184.123 221.192L225.949 197.026V172.929L142.297 172.883Z" fill="white"/>
</mask>
<g mask="url(#mask4_657_15665)">
<path d="M184.195 273.753L297.986 274.427L254.998 150.831L184.195 126.688V273.753Z" fill="#A678F5"/>
</g>
<path d="M142.297 172.883L184.123 148.786L225.949 172.929L184.123 197.026L142.297 172.883Z" fill="#E8D8FF"/>
<path d="M188.565 125.245C184.73 127.383 181.013 127.499 180.966 127.499C180.687 127.499 180.339 127.545 180.083 127.545C179.277 127.545 178.681 127.545 178.294 127.545C177.922 127.545 176.923 127.476 175.598 127.22C173.158 126.755 171.462 125.919 170.742 125.547C169.441 124.896 168.163 123.99 166.954 122.851C165.746 121.713 165.072 120.644 164.445 119.621C164.096 119.064 163.445 117.623 163.143 116.461C162.702 114.765 162.679 114.3 162.562 112.325C162.562 111.535 162.702 110.722 163.027 109.955C163.748 108.235 165.281 106.585 167.651 105.261C174.32 101.52 184.986 101.636 191.446 105.494C193.63 106.795 195.071 108.375 195.745 110.048C196.07 110.838 196.209 111.628 196.209 112.418C196.093 114.254 196.07 114.811 195.582 116.577C195.419 117.205 194.908 118.622 194.258 119.715C192.84 122.085 191.144 123.734 188.588 125.245H188.565Z" fill="#F05BD5"/>
<path d="M196.208 112.395C196.068 114.393 196.045 114.811 195.58 116.554C195.325 117.506 194.767 118.831 194.256 119.691C193.303 121.294 191.793 123.386 188.586 125.221C190.05 124.385 191.072 122.595 191.119 119.249C194.465 117.367 196.161 114.881 196.208 112.395Z" fill="#F05BD5"/>
<path d="M196.207 112.395C196.161 110.954 196.161 110.257 195.859 108.979C195.557 107.677 195.208 106.957 194.72 105.958C193.698 103.867 191.351 101.194 189.956 99.6142C187.702 97.035 185.913 94.9901 184.914 92.5967C187.377 98.5918 195.882 103.007 195.742 110.001C196.068 110.791 196.207 111.581 196.207 112.371V112.395Z" fill="#F05BD5"/>
<path d="M195.749 110.025C195.075 108.375 193.635 106.795 191.451 105.471C184.968 101.59 174.302 101.497 167.656 105.238C165.286 106.562 163.752 108.189 163.032 109.932C162.939 102.938 171.467 98.5691 173.953 92.5972C174.186 92.0163 174.72 91.4585 175.51 91.017C177.741 89.7622 181.319 89.8087 183.504 91.0868C184.247 91.5283 184.712 92.0628 184.944 92.6205C187.407 98.6156 195.912 103.031 195.773 110.025H195.749Z" fill="#F05BD5"/>
<path d="M173.925 92.5742C172.856 94.8282 172.066 95.9435 168.883 99.522C164.119 104.89 162.609 107.353 162.539 112.302C162.539 111.512 162.679 110.699 163.004 109.932C162.911 102.938 171.439 98.5693 173.925 92.5975V92.5742Z" fill="#F05BD5"/>
<path d="M184.922 92.6201C185.967 94.8741 186.757 95.9895 189.918 99.5912C194.658 104.982 196.145 107.468 196.192 112.395C196.331 105.424 187.594 99.777 185.061 93.4101C185.061 93.1312 185.015 92.8757 184.898 92.6201H184.922Z" fill="#F05BD5"/>
<path d="M162.54 112.301C162.586 110.861 162.609 110.164 162.912 108.886C163.214 107.584 163.585 106.864 164.073 105.888C165.096 103.797 167.466 101.148 168.86 99.5676C171.137 97.0115 172.927 94.9666 173.949 92.5732C173.833 92.8288 173.786 93.1076 173.786 93.3632C171.207 99.7069 162.447 105.307 162.54 112.278V112.301Z" fill="#F05BD5"/>
<path d="M184.921 92.6195C184.688 92.0618 184.224 91.5273 183.48 91.0858C181.296 89.7845 177.74 89.7612 175.487 91.016C174.696 91.4575 174.185 92.0153 173.93 92.5962C175.556 88.6692 177.16 87.0659 179.46 87.0891C182.551 87.0891 184.014 90.5747 184.897 92.6428L184.921 92.6195Z" fill="#F05BD5"/>
<path d="M169.789 125.012C168.836 124.431 166.28 122.851 164.445 119.598C163.562 118.041 163.143 116.508 163.143 116.438C162.679 114.672 162.655 114.045 162.562 112.302C162.609 114.718 164.189 117.135 167.326 119.017C173.809 122.898 184.475 122.991 191.121 119.25C191.074 122.596 190.052 124.385 188.588 125.222C187.217 125.942 184.01 127.592 179.2 127.545C174.344 127.476 171.021 125.733 169.812 124.989L169.789 125.012Z" fill="#F05BD5"/>
<path d="M185.056 93.41C187.588 99.7769 196.325 105.424 196.186 112.395C196.14 114.904 194.42 117.39 191.097 119.249C191.213 112.325 185.102 103.1 183.359 95.6871C184.475 95.0597 185.056 94.2232 185.079 93.3867L185.056 93.41Z" fill="#F05BD5"/>
<path d="M162.54 112.302C162.424 105.33 171.208 99.7304 173.787 93.3867C173.787 94.2 174.321 95.0132 175.39 95.6406C177.575 96.9419 181.13 96.9652 183.384 95.7104C185.15 103.123 191.238 112.348 191.121 119.273C184.453 123.014 173.787 122.898 167.327 119.04C164.19 117.158 162.61 114.741 162.563 112.325L162.54 112.302Z" fill="#F05BD5"/>
<path d="M181.48 87.6473C182.41 88.205 183.525 89.2507 184.919 92.62C185.035 92.8756 185.082 93.1544 185.082 93.41C185.082 94.2465 184.501 95.083 183.362 95.7104C181.132 96.9652 177.553 96.9187 175.369 95.6407C174.323 95.0133 173.789 94.2 173.766 93.3868C173.766 93.1079 173.812 92.8524 173.928 92.5968C174.765 90.6914 175.694 88.7395 177.251 87.7171C178.134 87.1362 179.04 87.0896 179.296 87.0664C180.133 87.0664 180.853 87.2523 181.48 87.6241V87.6473Z" fill="#F05BD5"/>
<path d="M184.125 196.724V220.89L225.951 245.01L267.778 220.867V196.747L184.125 196.724Z" fill="#ADCFFF"/>
<mask id="mask5_657_15665" style="mask-type:luminance" maskUnits="userSpaceOnUse" x="184" y="196" width="84" height="50">
<path d="M184.125 196.724V220.89L225.951 245.01L267.778 220.867V196.747L184.125 196.724Z" fill="white"/>
</mask>
<g mask="url(#mask5_657_15665)">
<path d="M226.023 297.595L339.791 298.269L296.803 174.649L226.023 150.506V297.595Z" fill="#A678F5"/>
</g>
<path d="M184.125 196.723L225.951 172.604L267.778 196.747L225.951 220.866L184.125 196.723Z" fill="#E8D8FF"/>
<path d="M237.994 175.493C233.497 172.893 227.531 171.333 221.229 171.088L219.608 186.169L197.2 178.353C191.066 184.288 192.718 191.951 201.207 196.846C211.364 202.704 228.021 202.704 238.116 196.846C248.211 190.988 248.15 181.336 237.994 175.462" fill="#1F7C4D"/>
<path d="M59.0469 173.162V197.352L100.873 221.471L142.699 197.305V173.209L59.0469 173.162Z" fill="#ADCFFF"/>
<mask id="mask6_657_15665" style="mask-type:luminance" maskUnits="userSpaceOnUse" x="59" y="173" width="84" height="49">
<path d="M59.0469 173.162V197.352L100.873 221.471L142.699 197.305V173.209L59.0469 173.162Z" fill="white"/>
</mask>
<g mask="url(#mask6_657_15665)">
<path d="M100.945 274.033L214.736 274.707L171.748 151.11L100.945 126.967V274.033Z" fill="#A678F5"/>
</g>
<path d="M59.0469 173.162L100.873 149.042L142.699 173.208L100.873 197.305L59.0469 173.162Z" fill="#E8D8FF"/>
<path d="M100.875 197.003V221.169L142.701 245.289L184.528 221.146V197.026L100.875 197.003Z" fill="#ADCFFF"/>
<mask id="mask7_657_15665" style="mask-type:luminance" maskUnits="userSpaceOnUse" x="100" y="197" width="85" height="49">
<path d="M100.875 197.003V221.169L142.701 245.289L184.528 221.146V197.026L100.875 197.003Z" fill="white"/>
</mask>
<g mask="url(#mask7_657_15665)">
<path d="M142.773 297.874L256.541 298.548L213.553 174.928L142.773 150.785V297.874Z" fill="#A678F5"/>
</g>
<path d="M100.875 197.003L142.701 172.883L184.528 197.026L142.701 221.146L100.875 197.003Z" fill="#E8D8FF"/>
<path d="M142.672 220.82L184.498 196.7L226.324 220.843L184.498 244.963L142.672 220.82Z" fill="#E8D8FF"/>
<path d="M248.711 188.84L276.2 204.804L248.711 188.84Z" fill="#0F1114"/>
<path d="M276.2 204.804L248.711 188.84L276.2 204.804Z" fill="#93B73A"/>
<path d="M273.58 202.48L246.091 186.516C242.791 184.611 238.213 184.866 233.171 187.794C226.595 191.605 220.856 198.925 217.695 206.756L245.184 222.719C248.345 214.888 254.084 207.546 260.66 203.758C265.703 200.853 270.28 200.575 273.58 202.48Z" fill="#0F1114"/>
<path d="M228.245 191.419C228.454 191.535 228.64 191.651 228.849 191.768C235.076 195.3 241.281 198.832 247.508 202.387C250.32 203.99 253.155 205.547 255.943 207.197C251.389 211.24 247.555 216.84 245.184 222.719L217.695 206.755C220.042 200.946 223.783 195.439 228.245 191.419Z" fill="#93B73A"/>
<path d="M242.565 220.372L215.076 204.409C211.776 202.503 207.222 202.782 202.18 205.687L229.669 221.65C234.711 218.746 239.289 218.467 242.565 220.372Z" fill="#0F1114"/>
<path d="M276.2 204.804C273.017 200.621 267.231 199.948 260.655 203.735C254.079 207.546 248.339 214.865 245.179 222.696C241.996 218.514 236.233 217.84 229.657 221.627C219.758 227.344 211.764 241.03 211.625 252.393L211.695 284.483L275.852 246.049" fill="#1F7C4D"/>
<path d="M229.662 221.65L202.172 205.687C192.274 211.403 184.28 225.089 184.141 236.452L211.63 252.416C211.769 241.053 219.763 227.366 229.662 221.65Z" fill="#93B73A"/>
<path d="M279.811 152.266C262.5 129.285 254.181 105.095 265.033 77.3037C266.148 74.4456 270.005 73.9112 271.795 76.4207C291.592 104.073 304.164 130.981 279.788 152.289L279.811 152.266Z" fill="#1F7C4D"/>
<path d="M277.628 150.174C270.401 122.336 271.911 96.776 292.569 75.2354C294.707 73.0047 298.448 74.0039 299.168 77.0014C306.929 110.114 308.277 139.787 277.651 150.174H277.628Z" fill="#93B73B"/>
<path d="M278.694 157.656C274.372 140.786 276.393 125.055 292.334 111.066C293.984 109.626 296.702 110.09 297.12 111.926C301.652 132.003 301.605 150.197 278.694 157.656Z" fill="#93B73B"/>
<path d="M277.628 157.586C253.02 143.11 236.127 124.149 235.267 94.7075C235.174 91.3382 238.869 89.1772 241.751 90.9664C270.355 108.836 291.895 128.773 277.651 157.586H277.628Z" fill="#93B73B"/>
<path d="M277.625 157.587C277.927 129.052 285.572 105.142 310.691 89.7125C313.572 87.9465 317.29 90.0843 317.151 93.4536C315.896 127.147 309.715 155.566 277.625 157.564V157.587Z" fill="#1F7C4D"/>
<path d="M99.4741 185.059C114.63 185.059 126.917 178.495 126.917 170.397C126.917 162.299 114.63 155.734 99.4741 155.734C84.3179 155.734 72.0312 162.299 72.0312 170.397C72.0312 178.495 84.3179 185.059 99.4741 185.059Z" fill="#1F7C4D"/>
<path d="M104.73 121.67L104.614 166.145C104.614 167.237 103.893 168.329 102.453 169.166C99.5713 170.839 94.8311 170.839 91.9265 169.166C90.4625 168.329 89.7422 167.214 89.7422 166.098L89.8583 121.623C89.8583 122.738 90.5787 123.831 92.0426 124.69C94.9472 126.363 99.6642 126.363 102.569 124.69C104.01 123.854 104.73 122.762 104.73 121.67Z" fill="#0F1114"/>
<path d="M128.386 122.088C120.857 126.317 110.517 125.527 99.1311 118.695C99.8514 118.3 99.8515 117.626 99.1776 117.231C98.5037 116.836 97.3418 116.813 96.6214 117.208C95.9011 117.603 95.9012 118.277 96.5751 118.672C97.2489 119.067 98.4107 119.09 99.1311 118.695C110.54 125.503 120.857 126.293 128.386 122.088C117.023 128.385 104.708 130.941 91.7881 129.686C82.4237 128.78 75.6386 125.898 73.4079 124.946C65.5073 121.6 60.3255 117.301 57.8159 115.256C54.493 112.514 43.3162 102.266 38.7618 85.1642C37.1585 79.1691 36.4846 73.2204 36.7402 67.4345C36.9726 62.1597 38.5991 55.7231 40.3419 49.5654C44.5478 34.5544 54.9114 7.69258 62.9746 -9.08442C66.7157 -16.892 68.8535 -20.0987 69.7829 -21.3302C71.5257 -23.6074 72.2228 -24.2116 74.2444 -26.0241C75.1738 -26.8606 76.6377 -27.6971 77.7066 -28.3478C78.8685 -28.9984 80.1001 -29.5793 81.3781 -30.1138C91.5093 -34.2034 105.08 -34.1337 115.141 -30.0208C116.628 -29.4166 118.023 -28.7195 119.324 -27.9295C121.229 -26.7444 124.761 -24.5601 128.154 -18.9833C132.267 -12.2679 137.193 -0.626205 139.842 5.6245C144.35 16.267 150.136 31.9751 152.506 39.4341C154.621 46.0334 155.783 49.728 157.13 55.2119C158.803 61.9738 159.059 65.5988 159.082 65.9706C159.198 67.876 159.314 70.4088 159.198 72.291C159.012 75.1491 158.641 78.9599 157.99 81.7484C157.014 85.9542 156.712 87.209 155.202 91.2058C154.226 93.7618 152.576 97.0382 151.251 99.4548C148.533 104.404 143.932 109.726 142.259 111.375C140.469 113.141 138.03 115.442 136.031 116.952C132.615 119.578 130.338 120.902 128.317 122.088H128.386Z" fill="#0F1114"/>
<path d="M99.8734 44.6854L99.6642 117.974C99.6642 117.719 99.5016 117.44 99.153 117.254C98.4559 116.836 97.3172 116.836 96.5969 117.231C96.2251 117.44 96.0625 117.696 96.0625 117.974L96.2717 44.6854C96.2717 44.4066 96.4575 44.151 96.8061 43.9419C97.5264 43.5468 98.665 43.5469 99.3621 43.9651C99.7106 44.1742 99.8734 44.4298 99.8734 44.6854Z" fill="#0F1114"/>
<path d="M99.6907 117.975C99.6907 118.253 99.5048 118.509 99.1562 118.718L99.3653 45.4291C99.7371 45.22 99.8998 44.9644 99.8998 44.6855C99.8301 66.6676 99.7604 95.9925 99.6907 117.975Z" fill="#0F1114"/>
<path d="M96.295 44.6621C96.295 44.9177 96.4577 45.1966 96.8063 45.3824C97.5034 45.8007 98.6419 45.8007 99.3623 45.4057L99.1532 118.695C98.4329 119.09 97.2942 119.09 96.5971 118.671C96.2485 118.462 96.0859 118.207 96.0859 117.951C96.1556 95.969 96.2253 66.6442 96.295 44.6621Z" fill="#0F1114"/>
<path d="M99.9448 20.9374L99.8751 44.6854C99.8751 44.4298 99.7124 44.151 99.3638 43.9651C98.6667 43.5468 97.5282 43.5468 96.8078 43.9418C96.436 44.151 96.2734 44.4066 96.2734 44.6854L96.3431 20.9374C96.3431 20.6585 96.5289 20.403 96.8775 20.1938C97.5978 19.7988 98.7365 19.7988 99.4336 20.217C99.7822 20.4262 99.9448 20.6818 99.9448 20.9374Z" fill="#0F1114"/>
<path d="M99.8705 44.6855C99.8705 44.9644 99.6845 45.22 99.3359 45.4291L99.4057 21.6811C99.7775 21.472 99.9401 21.2163 99.9401 20.9375C99.9401 28.0712 99.8937 37.5518 99.8705 44.6855Z" fill="#0F1114"/>
<path d="M96.3667 20.9141C96.3667 21.1697 96.5292 21.4485 96.8778 21.6344C97.5749 22.0527 98.7136 22.0526 99.4339 21.6576L99.3642 45.4057C98.6438 45.8007 97.5053 45.8007 96.8082 45.3824C96.4596 45.1733 96.2969 44.9177 96.2969 44.6621C96.2969 37.5284 96.3434 28.0478 96.3667 20.9141Z" fill="#0F1114"/>
<path d="M159.345 69.6185C159.322 72.4999 158.973 76.334 158.555 79.1689C158.253 81.3531 157.509 84.2113 156.928 86.3258C156.208 88.9981 154.117 94.7143 151.328 99.4546C147.75 105.519 144.613 109.121 141.034 112.676C135.829 117.812 130.229 121.042 128.393 122.087C135.992 117.812 140.709 108.447 140.755 94.9932C140.802 80.354 122.422 2.06908 118.773 -3.80984C130.438 -10.3626 130.694 -21.1445 119.354 -27.9297C119.866 -27.6044 120.609 -27.1861 121.097 -26.8143C122.096 -26.0243 123.444 -25.0018 124.304 -24.0724C126.906 -21.191 127.208 -20.6798 129.532 -16.7063C129.741 -16.3577 131.647 -13.0349 135.504 -4.50695C137.921 0.837519 139.849 5.53137 142.08 10.9688C143.823 15.2444 146.727 22.6337 150.608 33.6479C153.025 40.4796 154.581 45.824 155.743 49.7278C156.603 52.6324 159.391 62.6707 159.322 69.5953L159.345 69.6185Z" fill="#1F7C4D"/>
<path d="M98.2959 -27.5342L99.9689 20.9146C99.9689 20.659 99.783 20.4034 99.4577 20.2175C98.7606 19.7993 97.6219 19.7993 96.9016 20.1943C96.553 20.4034 96.3672 20.659 96.3672 20.9146L98.2959 -27.5342Z" fill="#0F1114"/>
<path d="M99.9388 20.9146C99.9388 21.1935 99.7762 21.4723 99.4044 21.6815L98.2891 -27.5342C98.777 -13.0112 99.4508 6.36838 99.962 20.9146H99.9388Z" fill="#0F1114"/>
<path d="M98.2957 -27.5342L99.411 21.6815C98.6907 22.0765 97.5521 22.0765 96.855 21.6582C96.5065 21.4491 96.3438 21.1702 96.3438 20.9146C96.9247 6.39161 97.6915 -12.9879 98.2724 -27.5342H98.2957Z" fill="#0F1114"/>
<path d="M66.1779 121.251C64.1099 119.973 61.4608 118.137 59.5554 116.673C58.045 115.512 56.1163 113.839 54.7686 112.468C52.9561 110.609 50.6092 108.053 49.0291 105.985C47.449 103.916 45.5436 101.128 44.3353 98.8508C43.2664 96.8292 41.8722 94.1337 41.0589 91.9959C40.0597 89.3934 38.8746 85.8382 38.2472 83.1194C36.2256 74.1268 36.6904 68.1782 36.8763 65.6221C36.946 64.6694 37.3178 61.091 38.8979 54.8635C39.4091 52.8419 40.6174 48.1016 43.6149 39.1089C46.3569 30.9295 51.1669 17.5451 58.6956 0.256918C62.367 -8.20129 66.4335 -16.3574 68.5713 -19.5874C69.4775 -20.9583 70.6394 -22.6779 72.7307 -24.6995C73.1955 -25.141 73.8229 -25.7219 74.3341 -26.0937C75.31 -26.814 76.6809 -27.7203 77.7266 -28.3477C66.0617 -21.7949 65.8061 -11.013 77.1457 -4.22781C88.4852 2.55735 107.121 2.74326 118.786 -3.80953C122.411 2.06939 140.791 80.3543 140.768 94.9935C140.722 108.448 136.005 117.835 128.406 122.088C126.454 123.11 123.852 124.435 121.83 125.271C117.833 126.921 114.766 127.711 114.72 127.711C111.397 128.547 109.747 128.989 105.843 129.5C101.73 130.035 97.5709 129.988 97.385 129.988C89.0197 129.872 83.652 128.362 80.12 127.386C76.6113 126.41 70.7789 124.063 66.2012 121.251H66.1779Z" fill="#93B73B"/>
<path d="M116.748 -30.5784C121.651 -27.5808 123.765 -24.9318 125.694 -22.2596C129.877 -16.0554 127.553 -8.73577 118.793 -3.8328C107.128 2.71999 88.4917 2.53411 77.1521 -4.25105C68.8333 -9.22373 66.7652 -16.3807 70.8782 -22.4223C71.9935 -23.9327 72.9463 -25.2107 74.294 -26.4655C75.7347 -27.79 76.9662 -28.9286 79.7779 -30.6249C82.1248 -32.0423 86.0751 -33.9477 91.5357 -34.9237C98.0885 -36.0855 103.131 -35.2258 105.548 -34.8075C109.149 -34.1801 113.657 -32.4838 116.771 -30.5784H116.748Z" fill="#93B73B"/>
<path d="M111.542 -5.20424C111.008 -6.87729 110.636 -8.66653 109.823 -10.2234C108.01 -13.6392 104.85 -16.1256 101.829 -18.426C98.3438 -21.075 95.2069 -24.1422 91.7214 -26.7912C89.8624 -28.2087 87.7943 -29.2776 85.7262 -30.3233C84.6806 -30.8577 83.5188 -31.7175 82.3105 -32.0195C81.3113 -31.5548 80.4515 -31.0668 79.7544 -30.6486C76.9427 -28.9523 75.7112 -27.8137 74.2705 -26.4892C72.9228 -25.2344 71.9469 -23.9331 70.8548 -22.446C66.7418 -16.4044 68.8098 -9.24746 77.1286 -4.27478C86.8183 1.5112 101.806 2.48714 113.239 -1.43988C112.518 -2.62496 111.984 -3.87975 111.519 -5.25072L111.542 -5.20424Z" fill="#93B73B"/>
<path d="M133.562 231.643L90.9922 206.896L104.284 199.228L146.853 223.975L133.562 231.643Z" fill="#E8D8FF"/>
<path d="M108.515 221.744L65.9219 196.997L90.9944 206.896L133.564 231.643L108.515 221.744Z" fill="#E8D8FF"/>
<path d="M101.609 232.34L59.0391 207.593L65.9172 196.997L108.51 221.744L101.609 232.34Z" fill="#ADCFFF"/>
<path d="M-20.3908 130.999L-43.0234 253.968L-11.5608 272.116L19.8786 253.968L1.87 130.999H-20.3908Z" fill="#93B73B"/>
<mask id="mask8_657_15665" style="mask-type:luminance" maskUnits="userSpaceOnUse" x="-44" y="130" width="64" height="143">
<path d="M-20.3908 130.999L-43.0234 253.968L-11.5608 272.116L19.8786 253.968L1.87 130.999H-20.3908Z" fill="white"/>
</mask>
<g mask="url(#mask8_657_15665)">
<path d="M-11.5156 301.186L74.0192 293.796L4.40155 130L-9.26172 137.436L-11.5156 301.186Z" fill="#1F7C4D"/>
</g>
<path d="M-20.3984 130.999L-9.57014 124.399L1.86235 130.999L-9.26804 137.435L-20.3984 130.999Z" fill="#0F1114"/>
<path d="M174.663 170.591C168.388 166.964 158.271 166.964 152.043 170.591C145.816 174.218 145.84 180.087 152.115 183.69C158.39 187.317 168.507 187.317 174.734 183.69C180.962 180.064 180.938 174.194 174.663 170.591Z" fill="#0F1114"/>
<path d="M160.301 170.925C169.201 170.925 176.407 163.719 176.407 154.82C176.407 145.92 169.201 138.714 160.301 138.714C151.401 138.714 144.195 145.92 144.195 154.82C144.195 163.719 151.401 170.925 160.301 170.925Z" fill="#FFC936"/>
<path d="M160.301 159.448C162.854 159.448 164.954 157.372 164.954 154.795C164.954 152.218 162.878 150.143 160.301 150.143C157.724 150.143 155.672 152.218 155.672 154.795C155.672 157.372 157.748 159.448 160.301 159.448Z" fill="#FFEF9F"/>
<path d="M252.389 80.3115L272.628 68.3213L272.372 153.879L252.156 165.87L252.389 80.3115Z" fill="#F28100"/>
<path d="M198.844 24.0086L219.06 12.0184C224.753 8.69554 232.653 9.16028 241.344 14.2027L221.128 26.1929C212.414 21.1737 204.537 20.709 198.844 24.0086Z" fill="#FFDC96"/>
<path d="M226.826 30.0962C224.99 28.6323 223.085 27.3078 221.133 26.1924C203.845 16.2006 189.763 24.2405 189.693 44.108L189.461 129.689L200.801 136.242L201.033 50.6608C201.079 33.0008 212.21 24.7285 226.826 30.0962Z" fill="#FFC936"/>
<path d="M232.847 32.977C232.73 32.9073 232.614 32.8144 232.498 32.7447C230.569 31.6293 228.687 30.7696 226.852 30.0957C227.618 30.6999 228.385 31.3505 229.152 32.0244C230.36 32.2567 231.592 32.5355 232.87 32.977H232.847Z" fill="#FFC936"/>
<path d="M252.158 165.148L207.543 139.402L207.776 53.8206C207.822 37.9963 216.745 29.724 229.107 32.0244C228.364 31.3506 227.597 30.7232 226.807 30.0958C212.191 24.7281 201.083 33.0004 201.014 50.6604L200.781 136.242L252.135 165.892V165.171L252.158 165.148Z" fill="#0F1114"/>
<path d="M207.795 53.821L207.539 140.099L252.177 165.892L252.41 80.311C252.456 63.6037 242.557 43.8524 229.126 32.0249C216.764 29.7244 207.841 37.9967 207.795 53.821Z" fill="#FFC936"/>
<path d="M221.156 26.1933L241.372 14.2031C258.684 24.195 272.672 48.431 272.626 68.2985L252.41 80.2887C252.456 60.4212 238.468 36.1851 221.156 26.1933Z" fill="#FFDC96"/>
<path d="M215.718 98.2269C218.798 98.2269 221.294 95.7301 221.294 92.6501C221.294 89.5701 218.798 87.0732 215.718 87.0732C212.638 87.0732 210.141 89.5701 210.141 92.6501C210.141 95.7301 212.638 98.2269 215.718 98.2269Z" fill="#0F1114"/>
</g>
<defs>
<clipPath id="clip0_657_15665">
<rect width="340" height="207" fill="white"/>
</clipPath>
</defs>
</svg>
