<svg width="130" height="155" viewBox="30 48 150 155" fill="none" xmlns="http://www.w3.org/2000/svg">
<path d="M178.5 130.504L158.028 148.779L141.871 160.859L162.344 142.584L178.5 130.504Z" fill="black"/>
<path d="M88.8416 67.3026L68.3691 85.5781L80.3833 69.2755L100.856 51L88.8416 67.3026Z" fill="black"/>
<path d="M163.174 164.564L142.701 182.839L121.193 181.662L141.631 163.387L163.174 164.564Z" fill="black"/>
<path d="M68.1311 88.1392L47.6586 106.415L46.8301 84.4356L67.3025 66.1602L68.1311 88.1392Z" fill="#FFC22F"/>
<path d="M129.618 179.723L109.145 197.999L90.4336 184.119L110.906 165.844L129.618 179.723Z" fill="#FFC22F"/>
<path d="M65.4366 119.36L44.9642 137.635L31.5 118.494L51.9724 100.219L65.4366 119.36Z" fill="black"/>
<path d="M90.5695 170.38L70.1316 188.69L61.3281 167.334L81.8005 149.059L90.5695 170.38Z" fill="#FFC22F"/>
<path d="M110.905 165.844L90.4326 184.119L70.1328 188.688L90.5707 170.378L110.905 165.844Z" fill="black"/>
<path d="M60.8793 140.058L40.4414 158.333L44.964 137.635L65.4364 119.359L60.8793 140.058Z" fill="#FFC22F"/>
<path d="M81.8005 149.058L61.3281 167.333L40.4414 158.334L60.8793 140.059L81.8005 149.058Z" fill="black"/>
<path d="M139.869 60.3454L148.673 81.6322L169.525 90.6661L165.037 111.33L178.501 130.505L162.344 142.585L163.173 164.564L141.63 163.387L129.616 179.725L110.904 165.845L90.5699 170.379L81.8009 149.058L60.8797 140.058L65.4368 119.36L51.9727 100.219L68.1296 88.1394L67.3011 66.1603L88.8437 67.3026L100.858 51L119.57 64.9143L139.869 60.3454Z" fill="#F07600"/>
</svg>
